<svg width="31" height="20" viewBox="0 0 31 20" fill="none" xmlns="http://www.w3.org/2000/svg">
<path fill-rule="evenodd" clip-rule="evenodd" d="M9.99999 12V9H19C19.61 13.31 17.66 19.01 10.13 19.01C6.05468 19.041 2.4601 16.3475 1.34548 12.4274C0.230855 8.50739 1.87048 4.32555 5.35243 2.20774C8.83438 0.089938 13.3018 0.557343 16.27 3.35C15.0068 4.52062 14.6052 4.96515 14.2612 5.34605C14.085 5.54107 13.924 5.71941 13.67 5.97C12.694 5.10823 11.4318 4.64116 10.13 4.66C7.17802 4.66 4.78499 7.05303 4.78499 10.005C4.78499 12.957 7.17802 15.35 10.13 15.35C13.09 15.35 14.29 14.09 15.06 11.78C13.64 11.78 9.99999 12 9.99999 12ZM28 6V9H31V12H28V15L25 14.99V12H22V9H25V6H28Z" fill="black"/>
</svg>
