<svg width="22" height="20" viewBox="0 0 22 20"  xmlns="http://www.w3.org/2000/svg">
<g clip-path="url(#clip0_0_46)">
<path fill-rule="evenodd" clip-rule="evenodd" d="M3 20C1.34315 20 0 18.6568 0 17L2 6.99999C2 5.34314 3.34315 3.99999 5 3.99999H6C6.52793 1.66307 8.60419 0.00354004 11 0.00354004C13.3958 0.00354004 15.4721 1.66307 16 3.99999H17C18.6569 3.99999 20 5.34314 20 6.99999L22 17C22 18.6568 20.6569 20 19 20H3ZM11 1.99999C9.6874 1.9981 8.5031 2.78764 8 3.99999H14C13.4969 2.78764 12.3126 1.9981 11 1.99999ZM16 5.99999C17.1032 6.00329 17.9967 6.89679 18 7.99999L20 16C19.9967 17.1032 19.1032 17.9967 18 18H4C2.89543 18 2 17.1046 2 16L4 7.99999C4 6.89542 4.89543 5.99999 6 5.99999V6.99999C6 7.55228 6.44772 7.99999 7 7.99999C7.55228 7.99999 8 7.55228 8 6.99999V5.99999H14V6.99999C14 7.55228 14.4477 7.99999 15 7.99999C15.5523 7.99999 16 7.55228 16 6.99999V5.99999Z"/>
</g>
<defs>
<clipPath id="clip0_0_46">
<rect width="22" height="20" fill="white"/>
</clipPath>
</defs>
</svg>
