<svg width="21" height="17" viewBox="0 0 21 17" fill="none" xmlns="http://www.w3.org/2000/svg">
<path d="M17.962 3.98998C17.971 4.15998 17.975 4.33998 17.975 4.51998C17.9727 7.59915 16.7356 10.5488 14.5408 12.7084C12.346 14.8681 9.37681 16.0574 6.298 16.01C4.07289 16.012 1.8926 15.3845 0.00900269 14.2C0.328003 14.23 0.656003 14.25 0.987003 14.25C2.83149 14.2529 4.62494 13.6445 6.087 12.52C4.34065 12.4957 2.80135 11.3679 2.252 9.70998C2.50576 9.76188 2.764 9.78867 3.023 9.78998C3.38816 9.78962 3.75178 9.74257 4.105 9.64998C2.20448 9.28241 0.826785 7.62567 0.812003 5.68998C0.81017 5.67336 0.81017 5.6566 0.812003 5.63998C1.38368 5.94973 2.02008 6.12099 2.67 6.13998C1.53328 5.40017 0.847152 4.13625 0.846003 2.77998C0.844368 2.06575 1.03578 1.36436 1.4 0.74998C3.5028 3.27996 6.57108 4.81102 9.857 4.96998C9.78966 4.66797 9.75612 4.35941 9.757 4.04998C9.77516 1.80285 11.6099 -0.00499009 13.857 0.00998C14.9865 0.00706742 16.0681 0.465866 16.851 1.27998C17.7704 1.1062 18.6527 0.774641 19.459 0.29998C19.1517 1.24089 18.5117 2.03736 17.659 2.53998C18.4712 2.44213 19.2649 2.22653 20.015 1.89998C19.4611 2.71377 18.7658 3.42164 17.962 3.98998Z" fill="black"/>
</svg>
