<svg width="18" height="18" viewBox="0 0 18 18" fill="none" xmlns="http://www.w3.org/2000/svg">
<path fill-rule="evenodd" clip-rule="evenodd" d="M9 18C4.02944 18 0 13.9706 0 9C0 4.02944 4.02944 0 9 0C13.9706 0 18 4.02944 18 9C18 13.9706 13.9706 18 9 18ZM9 0.99C5.76026 0.99 2.83952 2.94157 1.59973 5.93471C0.359929 8.92784 1.04523 12.3731 3.33607 14.6639C5.62692 16.9548 9.07216 17.6401 12.0653 16.4003C15.0584 15.1605 17.01 12.2397 17.01 9C17.0072 4.57734 13.4227 0.992758 9 0.99ZM8 10H14V9H9V4H8V10Z" fill="# 8d8d8d"/>
</svg>
